<?xml version="1.0" encoding="UTF-8" standalone="no"?>
<!-- Created with Inkscape (http://www.inkscape.org/) -->

<svg
   xmlns:dc="http://purl.org/dc/elements/1.1/"
   xmlns:cc="http://creativecommons.org/ns#"
   xmlns:rdf="http://www.w3.org/1999/02/22-rdf-syntax-ns#"
   xmlns:svg="http://www.w3.org/2000/svg"
   xmlns="http://www.w3.org/2000/svg"
   xmlns:sodipodi="http://sodipodi.sourceforge.net/DTD/sodipodi-0.dtd"
   xmlns:inkscape="http://www.inkscape.org/namespaces/inkscape"
   width="744.09448819"
   height="1052.3622047"
   id="svg2"
   version="1.1"
   inkscape:version="0.48.2 r9819"
   sodipodi:docname="New document 1">
  <defs
     id="defs4" />
  <sodipodi:namedview
     id="base"
     pagecolor="#ffffff"
     bordercolor="#666666"
     borderopacity="1.0"
     inkscape:pageopacity="0.0"
     inkscape:pageshadow="2"
     inkscape:zoom="2"
     inkscape:cx="191.71239"
     inkscape:cy="800.12225"
     inkscape:document-units="px"
     inkscape:current-layer="layer1"
     showgrid="true"
     showguides="true"
     inkscape:guide-bbox="true"
     inkscape:window-width="1147"
     inkscape:window-height="1013"
     inkscape:window-x="687"
     inkscape:window-y="85"
     inkscape:window-maximized="0">
    <inkscape:grid
       type="xygrid"
       id="grid3763"
       empspacing="5"
       visible="true"
       enabled="true"
       snapvisiblegridlinesonly="true" />
    <sodipodi:guide
       orientation="1,0"
       position="100,900"
       id="guide3765" />
    <sodipodi:guide
       orientation="0,1"
       position="100,900"
       id="guide3767" />
    <sodipodi:guide
       orientation="0,1"
       position="101,890"
       id="guide3769" />
    <sodipodi:guide
       orientation="1,0"
       position="110,900"
       id="guide3771" />
    <sodipodi:guide
       orientation="1,0"
       position="300,865"
       id="guide3800" />
    <sodipodi:guide
       orientation="1,0"
       position="200,925"
       id="guide3802" />
    <sodipodi:guide
       orientation="0,1"
       position="230,800"
       id="guide3804" />
    <sodipodi:guide
       orientation="1,0"
       position="250,855"
       id="guide3828" />
    <sodipodi:guide
       orientation="0,1"
       position="255,850"
       id="guide3830" />
    <sodipodi:guide
       orientation="0,1"
       position="245,700"
       id="guide3875" />
    <sodipodi:guide
       orientation="0,1"
       position="240,750"
       id="guide3879" />
    <sodipodi:guide
       orientation="1,0"
       position="250,750"
       id="guide3881" />
    <sodipodi:guide
       orientation="0,1"
       position="200,600"
       id="guide3895" />
    <sodipodi:guide
       orientation="0,1"
       position="280,650"
       id="guide3897" />
  </sodipodi:namedview>
  <metadata
     id="metadata7">
    <rdf:RDF>
      <cc:Work
         rdf:about="">
        <dc:format>image/svg+xml</dc:format>
        <dc:type
           rdf:resource="http://purl.org/dc/dcmitype/StillImage" />
        <dc:title></dc:title>
      </cc:Work>
    </rdf:RDF>
  </metadata>
  <g
     inkscape:label="Layer 1"
     inkscape:groupmode="layer"
     id="layer1">
    <rect
       style="fill:#ff7577;fill-opacity:0;stroke:#61ff64;stroke-width:0;stroke-linejoin:round;stroke-miterlimit:4;stroke-opacity:1;stroke-dasharray:none"
       id="rect4014"
       width="100"
       height="100"
       x="200"
       y="352.36218"
       rx="0"
       inkscape:export-xdpi="200.43942"
       inkscape:export-ydpi="200.43942" />
    <rect
       inkscape:export-ydpi="200.10001"
       inkscape:export-xdpi="200.10001"
       rx="0"
       y="252.36218"
       x="200"
       height="100"
       width="100"
       id="rect4012"
       style="fill:#ff7577;fill-opacity:0;stroke:#61ff64;stroke-width:0;stroke-linejoin:round;stroke-miterlimit:4;stroke-opacity:1;stroke-dasharray:none" />
    <rect
       style="fill:#ff7577;fill-opacity:0;stroke:#61ff64;stroke-width:0;stroke-linejoin:round;stroke-miterlimit:4;stroke-opacity:1;stroke-dasharray:none"
       id="rect4008"
       width="100"
       height="100"
       x="200"
       y="152.36218"
       rx="0"
       inkscape:export-xdpi="199.53999"
       inkscape:export-ydpi="199.53999" />
    <rect
       transform="matrix(0.99999342,-0.00362892,0.01478733,-0.99989066,0,0)"
       rx="5.3584685"
       y="-233.01729"
       x="104.36602"
       height="20.409357"
       width="10.716937"
       id="rect3842"
       style="fill:#747577;fill-opacity:1;stroke:#616264;stroke-width:1.00278258;stroke-miterlimit:4;stroke-opacity:1;stroke-dasharray:none" />
    <path
       sodipodi:type="arc"
       style="fill:#747577;fill-opacity:1;stroke:#616264;stroke-width:11.73798847;stroke-miterlimit:4;stroke-opacity:1;stroke-dasharray:none"
       id="path3838"
       sodipodi:cx="388.57144"
       sodipodi:cy="725.2193"
       sodipodi:rx="117.14286"
       sodipodi:ry="117.14286"
       d="m 505.7143,725.2193 a 117.14286,117.14286 0 1 1 -234.28572,0 117.14286,117.14286 0 1 1 234.28572,0 z"
       transform="matrix(0.08519347,0,0,0.08519347,103.77125,161.31568)" />
    <path
       sodipodi:type="arc"
       style="fill:#747577;fill-opacity:1;stroke:#616264;stroke-width:18.55938646;stroke-miterlimit:4;stroke-opacity:1;stroke-dasharray:none"
       id="path3789"
       sodipodi:cx="388.57144"
       sodipodi:cy="725.2193"
       sodipodi:rx="117.14286"
       sodipodi:ry="117.14286"
       d="m 505.7143,725.2193 a 117.14286,117.14286 0 1 1 -234.28572,0 117.14286,117.14286 0 1 1 234.28572,0 z"
       transform="matrix(0.03036677,0.01546377,-0.0386594,0.07591693,150.78575,132.30287)" />
    <path
       transform="matrix(0.03638415,0.02215119,-0.0443024,0.0727683,126.32597,220.52007)"
       d="m 505.7143,725.2193 a 117.14286,117.14286 0 1 1 -234.28572,0 117.14286,117.14286 0 1 1 234.28572,0 z"
       sodipodi:ry="117.14286"
       sodipodi:rx="117.14286"
       sodipodi:cy="725.2193"
       sodipodi:cx="388.57144"
       id="path3777"
       style="fill:#d2d3d5;fill-opacity:1;stroke:#616264;stroke-width:16.60002311;stroke-miterlimit:4;stroke-opacity:1;stroke-dasharray:none"
       sodipodi:type="arc" />
    <path
       sodipodi:type="arc"
       style="fill:#d2d3d5;fill-opacity:1;stroke:#616264;stroke-width:16.60002311;stroke-miterlimit:4;stroke-opacity:1;stroke-dasharray:none"
       id="path3779"
       sodipodi:cx="388.57144"
       sodipodi:cy="725.2193"
       sodipodi:rx="117.14286"
       sodipodi:ry="117.14286"
       d="m 505.7143,725.2193 a 117.14286,117.14286 0 1 1 -234.28572,0 117.14286,117.14286 0 1 1 234.28572,0 z"
       transform="matrix(-0.03638415,0.02215119,0.0443024,0.0727683,89.803285,249.26168)" />
    <g
       id="g3853">
      <path
         sodipodi:type="arc"
         style="fill:#747577;fill-opacity:1;stroke:#616264;stroke-width:11.73798847;stroke-miterlimit:4;stroke-opacity:1;stroke-dasharray:none"
         id="path3836"
         sodipodi:cx="388.57144"
         sodipodi:cy="725.2193"
         sodipodi:rx="117.14286"
         sodipodi:ry="117.14286"
         d="m 505.7143,725.2193 a 117.14286,117.14286 0 1 1 -234.28572,0 117.14286,117.14286 0 1 1 234.28572,0 z"
         transform="matrix(-0.08725544,0.01164159,0.00667573,0.08906847,142.02406,182.71927)" />
      <path
         sodipodi:type="arc"
         style="fill:#d2d3d5;fill-opacity:1;stroke:#616264;stroke-width:12.37292825;stroke-miterlimit:4;stroke-opacity:1;stroke-dasharray:none"
         id="path3781"
         sodipodi:cx="388.57144"
         sodipodi:cy="725.2193"
         sodipodi:rx="117.14286"
         sodipodi:ry="117.14286"
         d="m 505.7143,725.2193 a 117.14286,117.14286 0 1 1 -234.28572,0 117.14286,117.14286 0 1 1 234.28572,0 z"
         transform="matrix(0.0727957,-0.02407707,0.02675232,0.08088411,63.37094,202.85715)" />
    </g>
    <path
       transform="matrix(0.08519347,0,0,0.08519347,106.89625,220.31568)"
       d="m 505.7143,725.2193 a 117.14286,117.14286 0 1 1 -234.28572,0 117.14286,117.14286 0 1 1 234.28572,0 z"
       sodipodi:ry="117.14286"
       sodipodi:rx="117.14286"
       sodipodi:cy="725.2193"
       sodipodi:cx="388.57144"
       id="path3787"
       style="fill:#747577;fill-opacity:1;stroke:#616264;stroke-width:11.73798884;stroke-miterlimit:4;stroke-opacity:1;stroke-dasharray:none"
       sodipodi:type="arc" />
    <path
       transform="matrix(0.04268294,0,0,0.04268294,173.41463,146.40769)"
       d="m 505.7143,725.2193 a 117.14286,117.14286 0 1 1 -234.28572,0 117.14286,117.14286 0 1 1 234.28572,0 z"
       sodipodi:ry="117.14286"
       sodipodi:rx="117.14286"
       sodipodi:cy="725.2193"
       sodipodi:cx="388.57144"
       id="path3810"
       style="fill:#d2d3d5;fill-opacity:1;stroke:#616264;stroke-width:272323925952.61712646;stroke-miterlimit:4;stroke-opacity:1;stroke-dasharray:none"
       sodipodi:type="arc" />
    <path
       transform="matrix(-0.03647151,-0.0120629,-0.01340323,0.0405239,190.46216,137.91368)"
       d="m 505.7143,725.2193 a 117.14286,117.14286 0 1 1 -234.28572,0 117.14286,117.14286 0 1 1 234.28572,0 z"
       sodipodi:ry="117.14286"
       sodipodi:rx="117.14286"
       sodipodi:cy="725.2193"
       sodipodi:cx="388.57144"
       id="path3818"
       style="fill:#747577;fill-opacity:1;stroke:#616264;stroke-width:413432584703.07556152;stroke-miterlimit:4;stroke-opacity:1;stroke-dasharray:none"
       sodipodi:type="arc" />
    <g
       id="g3975"
       style="stroke:#616264;stroke-opacity:1">
      <path
         transform="matrix(0.08519347,0,0,0.08519347,245.89625,136.55804)"
         d="m 505.7143,725.2193 a 117.14286,117.14286 0 1 1 -234.28572,0 117.14286,117.14286 0 1 1 234.28572,0 z"
         sodipodi:ry="117.14286"
         sodipodi:rx="117.14286"
         sodipodi:cy="725.2193"
         sodipodi:cx="388.57144"
         id="path3761"
         style="fill:#d2d3d5;fill-opacity:1;stroke:#616264;stroke-width:11.73798846999999945;stroke-miterlimit:4;stroke-opacity:1;stroke-dasharray:none"
         sodipodi:type="arc" />
      <g
         transform="translate(5.0285707,-2.2954072)"
         id="g3971"
         style="stroke:#616264;stroke-opacity:1">
        <rect
           style="fill:#747577;fill-opacity:1;stroke:#616264;stroke-width:1.00008428000000005;stroke-miterlimit:4;stroke-opacity:1;stroke-dasharray:none"
           id="rect3791"
           width="13.28678"
           height="20.152407"
           x="308.45383"
           y="69.647469"
           rx="5.508193"
           transform="matrix(0.86639042,0.49936723,-0.48338226,0.87540939,0,0)" />
        <path
           transform="matrix(0.03036677,0.01546377,-0.0386594,0.07591692,247.67964,164.48552)"
           d="m 505.7143,725.2193 c 0,64.69621 -52.44664,117.14286 -117.14286,117.14286 -64.69621,0 -117.14286,-52.44665 -117.14286,-117.14286 0,-64.69622 52.44665,-117.14286 117.14286,-117.14286 64.69622,0 117.14286,52.44664 117.14286,117.14286 z"
           sodipodi:ry="117.14286"
           sodipodi:rx="117.14286"
           sodipodi:cy="725.2193"
           sodipodi:cx="388.57144"
           id="path3773"
           style="fill:#d2d3d5;fill-opacity:1;stroke:#616264;stroke-width:18.55938721000000058;stroke-miterlimit:4;stroke-opacity:1;stroke-dasharray:none"
           sodipodi:type="arc" />
      </g>
      <path
         transform="matrix(-0.0727957,-0.02407707,-0.02675232,0.08088411,275.06152,130.5368)"
         d="m 493.33183,725.2193 a 104.76039,126.4455 0 1 1 -209.52078,0 104.76039,126.4455 0 1 1 209.52078,0 z"
         sodipodi:ry="126.4455"
         sodipodi:rx="104.76039"
         sodipodi:cy="725.2193"
         sodipodi:cx="388.57144"
         id="path3785"
         style="fill:#747577;fill-opacity:1;stroke:#616264;stroke-width:12.37292861999999971;stroke-miterlimit:4;stroke-opacity:1;stroke-dasharray:none"
         sodipodi:type="arc" />
      <path
         sodipodi:nodetypes="cc"
         inkscape:connector-curvature="0"
         id="path3826"
         d="m 233,186.36218 17,16"
         style="fill:none;stroke:#616264;stroke-width:1px;stroke-linecap:butt;stroke-linejoin:round;stroke-opacity:1" />
      <path
         sodipodi:nodetypes="ccccc"
         inkscape:connector-curvature="0"
         id="path3832"
         d="m 245,216.36218 5,-14 0,0 0,0 19,-3"
         style="fill:none;stroke:#616264;stroke-width:1px;stroke-linecap:butt;stroke-linejoin:miter;stroke-opacity:1" />
    </g>
    <path
       sodipodi:type="arc"
       style="fill:#747577;fill-opacity:1;stroke:#616264;stroke-width:11.73798847;stroke-miterlimit:4;stroke-opacity:1;stroke-dasharray:none"
       id="path3834"
       sodipodi:cx="388.57144"
       sodipodi:cy="725.2193"
       sodipodi:rx="117.14286"
       sodipodi:ry="117.14286"
       d="m 505.7143,725.2193 a 117.14286,117.14286 0 1 1 -234.28572,0 117.14286,117.14286 0 1 1 234.28572,0 z"
       transform="matrix(0.07309884,0.03167573,-0.04175421,0.07662583,146.31383,184.46318)" />
    <g
       id="g3857">
      <path
         transform="matrix(0.03405766,0.00115978,-0.00289945,0.08514413,97.368206,160.20649)"
         d="m 505.7143,725.2193 c 0,64.69621 -52.44664,117.14286 -117.14286,117.14286 -64.69621,0 -117.14286,-52.44665 -117.14286,-117.14286 0,-64.69622 52.44665,-117.14286 117.14286,-117.14286 64.69622,0 117.14286,52.44664 117.14286,117.14286 z"
         sodipodi:ry="117.14286"
         sodipodi:rx="117.14286"
         sodipodi:cy="725.2193"
         sodipodi:cx="388.57144"
         id="path3775"
         style="fill:#d2d3d5;fill-opacity:1;stroke:#616264;stroke-width:18.55938475;stroke-miterlimit:4;stroke-opacity:1;stroke-dasharray:none"
         sodipodi:type="arc" />
      <path
         sodipodi:nodetypes="saaaaaasss"
         inkscape:connector-curvature="0"
         id="path3851"
         d="m 108.375,212.54968 c 0.99698,-0.72809 -2.56521,-0.96302 -3.86428,-0.76961 -0.90386,0.13457 -1.75065,0.66916 -2.41605,1.2955 -0.96065,0.90426 -1.6168,2.13253 -2.07766,3.36872 -0.696335,1.86779 -0.951685,3.90937 -0.958952,5.90272 -0.0075,2.05007 0.226574,4.15646 0.941942,6.07767 0.42817,1.14992 0.92205,2.45462 1.95267,3.12056 1.69112,1.09272 6.47293,1.14747 5.98483,0.81694 -1.65835,-1.123 -3.35447,-5.54705 -3.38136,-8.77372 -0.0366,-4.38841 0.15752,-8.36494 3.81886,-11.03878 z"
         style="fill:#747577;fill-opacity:1;stroke:#616264;stroke-width:1px;stroke-linecap:butt;stroke-linejoin:miter;stroke-opacity:1" />
    </g>
    <g
       id="g3984">
      <g
         transform="translate(162.07527,59.676973)"
         id="g3861">
        <path
           sodipodi:type="arc"
           style="fill:#747577;fill-opacity:1;stroke:#616264;stroke-width:11.73798847;stroke-miterlimit:4;stroke-opacity:1;stroke-dasharray:none"
           id="path3863"
           sodipodi:cx="388.57144"
           sodipodi:cy="725.2193"
           sodipodi:rx="117.14286"
           sodipodi:ry="117.14286"
           d="m 505.7143,725.2193 c 0,64.69621 -52.44664,117.14286 -117.14286,117.14286 -64.69621,0 -117.14286,-52.44665 -117.14286,-117.14286 0,-64.69622 52.44665,-117.14286 117.14286,-117.14286 64.69622,0 117.14286,52.44664 117.14286,117.14286 z"
           transform="matrix(-0.08725544,0.01164159,0.00667573,0.08906847,142.02406,182.71927)" />
        <path
           sodipodi:type="arc"
           style="fill:#d2d3d5;fill-opacity:1;stroke:#616264;stroke-width:12.37292862;stroke-miterlimit:4;stroke-opacity:1;stroke-dasharray:none"
           id="path3865"
           sodipodi:cx="388.57144"
           sodipodi:cy="725.2193"
           sodipodi:rx="117.14286"
           sodipodi:ry="117.14286"
           d="m 505.7143,725.2193 c 0,64.69621 -52.44664,117.14286 -117.14286,117.14286 -64.69621,0 -117.14286,-52.44665 -117.14286,-117.14286 0,-64.69622 52.44665,-117.14286 117.14286,-117.14286 64.69622,0 117.14286,52.44664 117.14286,117.14286 z"
           transform="matrix(0.0727957,-0.02407707,0.02675232,0.08088411,63.37094,202.85715)" />
      </g>
      <path
         sodipodi:type="arc"
         style="fill:#747577;fill-opacity:1;stroke:#616264;stroke-width:11.73798847;stroke-miterlimit:4;stroke-opacity:1;stroke-dasharray:none"
         id="path3867"
         sodipodi:cx="388.57144"
         sodipodi:cy="725.2193"
         sodipodi:rx="117.14286"
         sodipodi:ry="117.14286"
         d="m 505.7143,725.2193 a 117.14286,117.14286 0 1 1 -234.28572,0 117.14286,117.14286 0 1 1 234.28572,0 z"
         transform="matrix(0.07309884,0.03167573,-0.04175421,0.07662583,227.31383,246.77278)" />
      <g
         transform="translate(142.51109,49.821009)"
         id="g3869">
        <path
           transform="matrix(0.03405766,0.00115978,-0.00289945,0.08514413,97.368206,160.20649)"
           d="m 505.7143,725.2193 c 0,64.69621 -52.44664,117.14286 -117.14286,117.14286 -64.69621,0 -117.14286,-52.44665 -117.14286,-117.14286 0,-64.69622 52.44665,-117.14286 117.14286,-117.14286 64.69622,0 117.14286,52.44664 117.14286,117.14286 z"
           sodipodi:ry="117.14286"
           sodipodi:rx="117.14286"
           sodipodi:cy="725.2193"
           sodipodi:cx="388.57144"
           id="path3871"
           style="fill:#d2d3d5;fill-opacity:1;stroke:#616264;stroke-width:18.5593853;stroke-miterlimit:4;stroke-opacity:1;stroke-dasharray:none"
           sodipodi:type="arc" />
        <path
           sodipodi:nodetypes="saaaaaasss"
           inkscape:connector-curvature="0"
           id="path3873"
           d="m 108.375,212.54968 c 0.99698,-0.72809 -2.56521,-0.96302 -3.86428,-0.76961 -0.90386,0.13457 -1.75065,0.66916 -2.41605,1.2955 -0.96065,0.90426 -1.6168,2.13253 -2.07766,3.36872 -0.696335,1.86779 -0.951685,3.90937 -0.958952,5.90272 -0.0075,2.05007 0.226574,4.15646 0.941942,6.07767 0.42817,1.14992 0.92205,2.45462 1.95267,3.12056 1.69112,1.09272 6.47293,1.14747 5.98483,0.81694 -1.65835,-1.123 -3.35447,-5.54705 -3.38136,-8.77372 -0.0366,-4.38841 0.15752,-8.36494 3.81886,-11.03878 z"
           style="fill:#747577;fill-opacity:1;stroke:#616264;stroke-width:1px;stroke-linecap:butt;stroke-linejoin:miter;stroke-opacity:1" />
      </g>
      <path
         sodipodi:nodetypes="cc"
         inkscape:connector-curvature="0"
         id="path3883"
         d="m 246,282.36218 4,20"
         style="fill:none;stroke:#616264;stroke-width:1px;stroke-linecap:butt;stroke-linejoin:miter;stroke-opacity:1" />
      <path
         inkscape:connector-curvature="0"
         id="path3885"
         d="m 235,312.36218 15,-10"
         style="fill:none;stroke:#616264;stroke-width:1px;stroke-linecap:butt;stroke-linejoin:miter;stroke-opacity:1" />
      <path
         sodipodi:nodetypes="cccc"
         inkscape:connector-curvature="0"
         id="path3887"
         d="m 265,307.36218 -15,-5 0,0 0,0"
         style="fill:none;stroke:#616264;stroke-width:1px;stroke-linecap:butt;stroke-linejoin:miter;stroke-opacity:1" />
    </g>
    <g
       id="g3996">
      <g
         transform="matrix(-0.89123341,0.45354492,-0.45354492,-0.89123341,455.59134,575.21078)"
         id="g3889">
        <path
           transform="matrix(0.03405766,0.00115978,-0.00289945,0.08514413,97.368206,160.20649)"
           d="m 505.7143,725.2193 c 0,64.69621 -52.44664,117.14286 -117.14286,117.14286 -64.69621,0 -117.14286,-52.44665 -117.14286,-117.14286 0,-64.69622 52.44665,-117.14286 117.14286,-117.14286 64.69622,0 117.14286,52.44664 117.14286,117.14286 z"
           sodipodi:ry="117.14286"
           sodipodi:rx="117.14286"
           sodipodi:cy="725.2193"
           sodipodi:cx="388.57144"
           id="path3891"
           style="fill:#d2d3d5;fill-opacity:1;stroke:#616264;stroke-width:18.5593853;stroke-miterlimit:4;stroke-opacity:1;stroke-dasharray:none"
           sodipodi:type="arc" />
        <path
           sodipodi:nodetypes="saaaaaasss"
           inkscape:connector-curvature="0"
           id="path3893"
           d="m 108.375,212.54968 c 0.99698,-0.72809 -2.56521,-0.96302 -3.86428,-0.76961 -0.90386,0.13457 -1.75065,0.66916 -2.41605,1.2955 -0.96065,0.90426 -1.6168,2.13253 -2.07766,3.36872 -0.696335,1.86779 -0.951685,3.90937 -0.958952,5.90272 -0.0075,2.05007 0.226574,4.15646 0.941942,6.07767 0.42817,1.14992 0.92205,2.45462 1.95267,3.12056 1.69112,1.09272 6.47293,1.14747 5.98483,0.81694 -1.65835,-1.123 -3.35447,-5.54705 -3.38136,-8.77372 -0.0366,-4.38841 0.15752,-8.36494 3.81886,-11.03878 z"
           style="fill:#747577;fill-opacity:1;stroke:#616264;stroke-width:1px;stroke-linecap:butt;stroke-linejoin:miter;stroke-opacity:1" />
      </g>
      <g
         inkscape:transform-center-y="3.7740174"
         inkscape:transform-center-x="23.716473"
         transform="matrix(0.87845583,0.47782356,-0.47782356,0.87845583,286.07685,135.24453)"
         id="g3899">
        <path
           transform="matrix(0.03405766,0.00115978,-0.00289945,0.08514413,97.368206,160.20649)"
           d="m 505.7143,725.2193 c 0,64.69621 -52.44664,117.14286 -117.14286,117.14286 -64.69621,0 -117.14286,-52.44665 -117.14286,-117.14286 0,-64.69622 52.44665,-117.14286 117.14286,-117.14286 64.69622,0 117.14286,52.44664 117.14286,117.14286 z"
           sodipodi:ry="117.14286"
           sodipodi:rx="117.14286"
           sodipodi:cy="725.2193"
           sodipodi:cx="388.57144"
           id="path3901"
           style="fill:#d2d3d5;fill-opacity:1;stroke:#616264;stroke-width:18.5593853;stroke-miterlimit:4;stroke-opacity:1;stroke-dasharray:none"
           sodipodi:type="arc" />
        <path
           sodipodi:nodetypes="saaaaaasss"
           inkscape:connector-curvature="0"
           id="path3903"
           d="m 108.375,212.54968 c 0.99698,-0.72809 -2.56521,-0.96302 -3.86428,-0.76961 -0.90386,0.13457 -1.75065,0.66916 -2.41605,1.2955 -0.96065,0.90426 -1.6168,2.13253 -2.07766,3.36872 -0.696335,1.86779 -0.951685,3.90937 -0.958952,5.90272 -0.0075,2.05007 0.226574,4.15646 0.941942,6.07767 0.42817,1.14992 0.92205,2.45462 1.95267,3.12056 1.69112,1.09272 6.47293,1.14747 5.98483,0.81694 -1.65835,-1.123 -3.35447,-5.54705 -3.38136,-8.77372 -0.0366,-4.38841 0.15752,-8.36494 3.81886,-11.03878 z"
           style="fill:#747577;fill-opacity:1;stroke:#616264;stroke-width:1px;stroke-linecap:butt;stroke-linejoin:miter;stroke-opacity:1" />
      </g>
      <path
         transform="matrix(0.08519347,0,0,0.08519347,187.91644,337.57823)"
         d="m 505.7143,725.2193 a 117.14286,117.14286 0 1 1 -234.28572,0 117.14286,117.14286 0 1 1 234.28572,0 z"
         sodipodi:ry="117.14286"
         sodipodi:rx="117.14286"
         sodipodi:cy="725.2193"
         sodipodi:cx="388.57144"
         id="path3905"
         style="fill:#747577;fill-opacity:1;stroke:#616264;stroke-width:11.73798847;stroke-miterlimit:4;stroke-opacity:1;stroke-dasharray:none"
         sodipodi:type="arc" />
      <path
         sodipodi:nodetypes="cc"
         style="fill:none;stroke:#616264;stroke-width:1px;stroke-linecap:butt;stroke-linejoin:miter;stroke-opacity:1"
         d="m 265,387.36218 -15,15"
         id="path3907"
         inkscape:connector-curvature="0" />
      <path
         sodipodi:nodetypes="cc"
         style="fill:none;stroke:#616264;stroke-width:1px;stroke-linecap:butt;stroke-linejoin:miter;stroke-opacity:1"
         d="m 231,400.36218 19,2"
         id="path3909"
         inkscape:connector-curvature="0" />
      <path
         sodipodi:nodetypes="cccc"
         style="fill:none;stroke:#616264;stroke-width:1px;stroke-linecap:butt;stroke-linejoin:miter;stroke-opacity:1"
         d="m 257,415.36218 -7,-13 0,0 0,0"
         id="path3911"
         inkscape:connector-curvature="0" />
    </g>
  </g>
</svg>
